<?xml version="1.0" encoding="utf-8"?>
<!-- Generator: Adobe Illustrator 18.1.1, SVG Export Plug-In . SVG Version: 6.00 Build 0)  -->
<svg version="1.1" id="Layer_1" xmlns="http://www.w3.org/2000/svg" xmlns:xlink="http://www.w3.org/1999/xlink" x="0px" y="0px"
	 width="36px" height="36px" viewBox="-431 283 36 36" enable-background="new -431 283 36 36" xml:space="preserve">
<path fill="#8a8a8a" d="M-404.5,292.5c-2.2-2.2-5.1-3.5-8.5-3.5c-6.6,0-12,5.4-12,12s5.4,12,12,12c5.9,0,10.9-4.3,11.8-10h-1
	c-0.9,4-3.9,8.9-10.8,8.9c-7.2,0-11-5.8-11-10.8c0-6.1,5-11.1,11-11.1c2.5,0,6,1.8,7.7,3.4L-404.5,292.5z"/>
<path fill="#8a8a8a" d="M-412.6,294.7l0.3,1l8.1-2.6l-2.6-8.1l-1,0.3l2.4,7.1L-412.6,294.7z"/>
</svg>
