<?xml version="1.0" encoding="utf-8"?>
<!-- Generator: Adobe Illustrator 18.1.1, SVG Export Plug-In . SVG Version: 6.00 Build 0)  -->
<svg version="1.1" id="Layer_1" xmlns="http://www.w3.org/2000/svg" xmlns:xlink="http://www.w3.org/1999/xlink" x="0px" y="0px"
	 width="359.2px" height="80.6px" viewBox="0 0 359.2 80.6" enable-background="new 0 0 359.2 80.6" xml:space="preserve">
<g id="wordmark">
	<g>
		<path fill="#898989" d="M34.2,65.2l-27-36.9v36.9H5.3v-40h1.9l27,36.5V25.2h1.9v40H34.2z"/>
		<path fill="#898989" d="M46.7,65.2v-40h24.5V27H48.6v16.7h22.1v1.8H48.6v17.9h22.6v1.8H46.7z"/>
		<path fill="#898989" d="M249.5,65.2l-27-36.9v36.9h-1.9v-40h1.9l27,36.5V25.2h1.9v40H249.5z"/>
		<path fill="#898989" d="M262,65.2v-40h24.5V27h-22.6v16.7H286v1.8h-22.1v17.9h22.6v1.8H262z"/>
		<path fill="#898989" d="M293.3,59.5l1.6-1.4c2.5,3,6.7,5.9,12.4,5.9c9.2,0,11.6-5.3,11.6-9.1c0-13.2-24.3-6.7-24.3-20.3
			c0-6.5,5.9-10.2,12.5-10.2c5.9,0,10.1,2.2,13,5.6l-1.5,1.4c-2.8-3.7-6.8-5.2-11.5-5.2c-5.8,0-10.4,3.5-10.4,8.4
			c0,11.4,24.3,5.4,24.3,20.3c0,4.5-2.9,10.9-13.7,10.9C301.1,65.9,296.2,63.2,293.3,59.5z"/>
		<path fill="#898989" d="M327.8,59.5l1.6-1.4c2.5,3,6.7,5.9,12.4,5.9c9.2,0,11.6-5.3,11.6-9.1c0-13.2-24.3-6.7-24.3-20.3
			c0-6.5,5.9-10.2,12.5-10.2c5.9,0,10.1,2.2,13,5.6l-1.5,1.4c-2.8-3.7-6.8-5.2-11.5-5.2c-5.8,0-10.4,3.5-10.4,8.4
			c0,11.4,24.3,5.4,24.3,20.3c0,4.5-2.9,10.9-13.7,10.9C335.6,65.9,330.7,63.2,327.8,59.5z"/>
	</g>
	<g>
		<path fill="#309CD7" d="M110,64.9L99.6,28.5L89.2,64.9h-2.3l-11.4-40h2.1L88.1,62l10.5-37.1h2L111.1,62l10.4-37.1h2.1l-11.4,40
			H110z"/>
	</g>
	<g>
		<g>
			<path fill="#309CD7" d="M155.9,64.9l-10.4-36.4l-10.4,36.4h-2.3l-11.4-40h2.1L134,62.1l10.5-37.1h2l10.5,37.1l10.4-37.1h2.1
				l-11.4,40H155.9z"/>
		</g>
	</g>
	<g>
		<g>
			<path fill="#309CD7" d="M202.1,64.9l-10.4-36.4l-10.4,36.4H179l-11.4-40h2.1L180.2,62l10.5-37.1h2L203.2,62l10.4-37.1h2.1
				l-11.4,40H202.1z"/>
		</g>
	</g>
	<polygon fill="#2780AD" points="122.5,28.6 123.5,24.9 124.7,28.8 123.4,31.5 	"/>
	<polygon fill="#2780AD" points="168.7,28.6 169.7,24.9 170.8,28.8 169.6,31.6 	"/>
</g>
</svg>
