<?xml version="1.0" encoding="utf-8"?>
<!-- Generator: Adobe Illustrator 18.1.1, SVG Export Plug-In . SVG Version: 6.00 Build 0)  -->
<!DOCTYPE svg PUBLIC "-//W3C//DTD SVG 1.1//EN" "http://www.w3.org/Graphics/SVG/1.1/DTD/svg11.dtd">
<svg version="1.1" id="Layer_1" xmlns="http://www.w3.org/2000/svg" xmlns:xlink="http://www.w3.org/1999/xlink" x="0px" y="0px"
	 viewBox="-269 260.4 359.2 80.6" enable-background="new -269 260.4 359.2 80.6" xml:space="preserve">
<g id="wordmark">
	<g id="wordmark_2_">
		<g>
			<path fill="#898989" d="M-260.5,286c0-0.7,0.6-1.2,1.2-1.2h0.4c0.5,0,0.9,0.3,1.2,0.7l22.3,28.3v-27.8c0-0.7,0.5-1.2,1.2-1.2
				s1.2,0.5,1.2,1.2V317c0,0.6-0.4,1-1,1h-0.2c-0.5,0-0.8-0.3-1.2-0.8l-22.7-28.8v28.4c0,0.7-0.5,1.2-1.2,1.2
				c-0.7,0-1.2-0.5-1.2-1.2V286z"/>
			<path fill="#898989" d="M-222.2,316.7v-30.6c0-0.7,0.6-1.2,1.2-1.2h21.3c0.6,0,1.1,0.5,1.1,1.1c0,0.6-0.5,1.1-1.1,1.1h-20.1v13
				h18c0.6,0,1.1,0.5,1.1,1.1c0,0.6-0.5,1.1-1.1,1.1h-18v13.3h20.3c0.6,0,1.1,0.5,1.1,1.1c0,0.6-0.5,1.1-1.1,1.1H-221
				C-221.7,317.9-222.2,317.4-222.2,316.7z"/>
			<path fill="#17A0E8" d="M-191.6,286.6c-0.1-0.2-0.1-0.4-0.1-0.6c0-0.7,0.6-1.3,1.3-1.3c0.7,0,1.1,0.6,1.3,1.1l10,28.4l9.4-28.6
				c0.2-0.5,0.5-0.9,1.2-0.9h0.1c0.6,0,1,0.4,1.2,0.9l9.4,28.6l10.1-28.6c0.2-0.6,0.6-1,1.2-1c0.6,0,1.2,0.6,1.2,1.2
				c0,0.2-0.1,0.4-0.2,0.7l-11,30.6c-0.2,0.6-0.6,1.1-1.3,1.1h-0.1c-0.7,0-1.1-0.5-1.3-1.1l-9.3-27.7l-9.3,27.7
				c-0.2,0.6-0.6,1.1-1.3,1.1h-0.1c-0.7,0-1-0.4-1.3-1.1L-191.6,286.6z"/>
			<path fill="#17A0E8" d="M-142,286.6c-0.1-0.2-0.1-0.4-0.1-0.6c0-0.7,0.6-1.3,1.3-1.3c0.7,0,1.1,0.6,1.3,1.1l10,28.4l9.4-28.6
				c0.2-0.5,0.5-0.9,1.2-0.9h0.1c0.6,0,1,0.4,1.2,0.9l9.4,28.6l10.1-28.6c0.2-0.6,0.6-1,1.2-1c0.6,0,1.2,0.6,1.2,1.2
				c0,0.2-0.1,0.4-0.2,0.7l-11,30.6c-0.2,0.6-0.6,1.1-1.3,1.1h-0.1c-0.7,0-1.1-0.5-1.3-1.1l-9.3-27.7l-9.3,27.7
				c-0.2,0.6-0.6,1.1-1.3,1.1h-0.1c-0.7,0-1-0.4-1.3-1.1L-142,286.6z"/>
			<path fill="#17A0E8" d="M-92.4,286.6c-0.1-0.2-0.1-0.4-0.1-0.6c0-0.7,0.6-1.3,1.3-1.3c0.7,0,1.1,0.6,1.3,1.1l10.1,28.4l9.4-28.6
				c0.2-0.5,0.5-0.9,1.2-0.9h0.1c0.6,0,1,0.4,1.2,0.9l9.4,28.6l10.1-28.6c0.2-0.6,0.6-1,1.2-1c0.6,0,1.2,0.6,1.2,1.2
				c0,0.2-0.1,0.4-0.2,0.7l-11,30.6c-0.2,0.6-0.6,1.1-1.3,1.1h-0.1c-0.7,0-1.1-0.5-1.3-1.1l-9.3-27.7l-9.3,27.7
				c-0.2,0.6-0.6,1.1-1.3,1.1h-0.1c-0.7,0-1-0.4-1.3-1.1L-92.4,286.6z"/>
			<path fill="#898989" d="M-40.3,286c0-0.7,0.6-1.2,1.2-1.2h0.4c0.5,0,0.9,0.3,1.2,0.7l22.3,28.3v-27.8c0-0.7,0.5-1.2,1.2-1.2
				c0.7,0,1.2,0.5,1.2,1.2V317c0,0.6-0.4,1-1,1H-14c-0.5,0-0.8-0.3-1.2-0.8L-38,288.5v28.4c0,0.7-0.5,1.2-1.2,1.2
				c-0.7,0-1.2-0.5-1.2-1.2V286z"/>
			<path fill="#898989" d="M-2.1,316.7v-30.6c0-0.7,0.6-1.2,1.2-1.2h21.3c0.6,0,1.1,0.5,1.1,1.1c0,0.6-0.5,1.1-1.1,1.1H0.3v13h18
				c0.6,0,1.1,0.5,1.1,1.1c0,0.6-0.5,1.1-1.1,1.1h-18v13.3h20.3c0.6,0,1.1,0.5,1.1,1.1c0,0.6-0.5,1.1-1.1,1.1H-0.9
				C-1.5,317.9-2.1,317.4-2.1,316.7z"/>
			<path fill="#898989" d="M29.1,313.8c-0.2-0.2-0.5-0.5-0.5-0.9c0-0.7,0.6-1.2,1.2-1.2c0.3,0,0.6,0.1,0.8,0.3
				c3.3,3,6.6,4.3,11.1,4.3c5,0,8.4-2.8,8.4-6.6v-0.1c0-3.5-1.8-5.5-9.3-7c-7.9-1.6-11.1-4.3-11.1-9.3v-0.1c0-4.9,4.5-8.7,10.6-8.7
				c4.4,0,7.5,1.1,10.5,3.4c0.2,0.2,0.5,0.5,0.5,1c0,0.7-0.6,1.2-1.2,1.2c-0.3,0-0.6-0.1-0.8-0.3c-2.9-2.2-5.8-3.1-9.1-3.1
				c-4.9,0-8.1,2.8-8.1,6.2v0.1c0,3.5,1.8,5.6,9.6,7.2c7.6,1.6,10.9,4.3,10.9,9.1v0.1c0,5.3-4.6,9-10.9,9
				C36.7,318.4,32.8,316.8,29.1,313.8z"/>
			<path fill="#898989" d="M59.7,313.8c-0.2-0.2-0.5-0.5-0.5-0.9c0-0.7,0.6-1.2,1.2-1.2c0.3,0,0.6,0.1,0.8,0.3
				c3.3,3,6.6,4.3,11.1,4.3c5,0,8.4-2.8,8.4-6.6v-0.1c0-3.5-1.8-5.5-9.3-7c-7.9-1.6-11.1-4.3-11.1-9.3v-0.1c0-4.9,4.5-8.7,10.6-8.7
				c4.4,0,7.5,1.1,10.5,3.4c0.2,0.2,0.5,0.5,0.5,1c0,0.7-0.6,1.2-1.2,1.2c-0.3,0-0.6-0.1-0.8-0.3c-2.9-2.2-5.8-3.1-9.1-3.1
				c-4.9,0-8.1,2.8-8.1,6.2v0.1c0,3.5,1.8,5.6,9.6,7.2c7.6,1.6,10.9,4.3,10.9,9.1v0.1c0,5.3-4.6,9-10.9,9
				C67.3,318.4,63.5,316.8,59.7,313.8z"/>
		</g>
	</g>
</g>
</svg>
